<?xml version="1.0" standalone="no"?><!DOCTYPE svg PUBLIC "-//W3C//DTD SVG 1.1//EN" "http://www.w3.org/Graphics/SVG/1.1/DTD/svg11.dtd"><svg t="1534573606498" class="icon" style="" viewBox="0 0 1024 1024" version="1.1" xmlns="http://www.w3.org/2000/svg" p-id="3285" xmlns:xlink="http://www.w3.org/1999/xlink" width="200" height="200"><defs><style type="text/css"></style></defs><path d="M512 1024A512 512 0 1 1 1024 512 512 512 0 0 1 512 1024z m0-981.917808A469.917808 469.917808 0 1 0 981.917808 512 469.917808 469.917808 0 0 0 512 42.082192z m219.023781 742.961096l-44.607123 7.701041a49.180055 49.180055 0 0 1-56.881096-38.96811l-7.560767-41.92789a15.430137 15.430137 0 0 1 12.792986-17.758685l110.549918-18.572274a15.654575 15.654575 0 0 1 18.081315 12.456329L770.875616 729.424658a48.268274 48.268274 0 0 1-39.851835 55.61863z m9.103781-137.580713l-110.563946 18.558247a15.640548 15.640548 0 0 1-18.081315-12.442301l-62.828712-348.805261a48.001753 48.001753 0 0 1 33.665753-53.935342 53.696877 53.696877 0 0 0-42.615232-36.050411c-27.774247-0.715397-58.452164 31.04263-82.172494 86.100164a47.580932 47.580932 0 0 1 22.920768 60.486137l-136.612822 328.521644a15.780822 15.780822 0 0 1-20.48 8.416438L219.655014 656.482192a15.205699 15.205699 0 0 1-8.542685-19.946959l136.430466-328.072767a49.628932 49.628932 0 0 1 63.992986-26.385534l2.272438 0.897753c43.947836-102.203616 98.837041-115.824219 127.901808-114.575781 38.85589 1.571068 72.184986 29.667945 88.007891 73.629808l3.408657-0.58915a49.09589 49.09589 0 0 1 56.881096 38.968109l62.912877 349.282192a15.430137 15.430137 0 0 1-12.792986 17.772712zM321.059068 744.714521l-16.215671 38.968109a49.642959 49.642959 0 0 1-63.992986 26.399562l-41.955945-16.70663a47.819397 47.819397 0 0 1-26.988713-62.590247l16.398028-39.431014a15.794849 15.794849 0 0 1 20.48-8.416438l103.718575 41.787616a15.233753 15.233753 0 0 1 8.556712 19.989042z" fill="#dbdbdb" p-id="3286"></path></svg>